# xmcd
#
# Track frame offsets: 
#        150
#        10145
#        22910
#        33003
#        45569
#        57418
#        69349
#        80420
#        92827
#        105920
#        117793
#        131720
#        144884
#        156188
#        169122
#        182144
#
# Disc length: 2584 seconds
#
# Revision: 1
# Processed by: cddbd v1.5.2PL0 Copyright (c) Steve Scherf et al.
# Submitted via: ExactAudioCopy v0.95b4
#
DISCID=bf0a1610
DTITLE=Champion Jack Dupree - Sings The Blues
DYEAR=1950
DGENRE=Blues
TTITLE0=Me And My Mule
TTITLE1=The Blue's Got Me Rockin'
TTITLE2=That's My Pa
TTITLE3=Tounge-Tied Blues
TTITLE4=Sharp Harp
TTITLE5=Blues For Everybody
TTITLE6=Camille
TTITLE7=Walkin' Upside Your Head
TTITLE8=Harelip Blues
TTITLE9=Big Leg Emma's
TTITLE10=Two Below Zero
TTITLE11=Silent Partner
TTITLE12=Mail Order Women
TTITLE13=Stumbling Block
TTITLE14=Failing Health Blues
TTITLE15=She Cooks Me Cabbage
EXTD=
EXTT0=
EXTT1=
EXTT2=
EXTT3=
EXTT4=
EXTT5=
EXTT6=
EXTT7=
EXTT8=
EXTT9=
EXTT10=
EXTT11=
EXTT12=
EXTT13=
EXTT14=
EXTT15=
PLAYORDER=
